<svg xmlns="http://www.w3.org/2000/svg" viewBox="0 0 594.35 256.37">
  <defs>
    <style>
      .cls-1, .cls-2 {
        fill: #1b1919;
      }

      .cls-2 {
        fill-rule: evenodd;
      }

      .cls-3 {
        fill: #fff;
      }
    </style>
  </defs>
  <title>sp_title</title>
  <g id="レイヤー_2" data-name="レイヤー 2">
    <g id="レイヤー_1-2" data-name="レイヤー 1">
      <g>
        <path class="cls-1" d="M73.8,82.14A60,60,0,0,1,43.65,90.3C19.45,90.3,0,70.46,0,45.34S19.45,0,43.65,0A45.13,45.13,0,0,1,73.31,11.68a2.49,2.49,0,0,1,.13,3.52L65.9,23.36a2,2,0,0,1-3.16,0,27.08,27.08,0,0,0-18.36-7.28c-15.2,0-27.23,13.44-27.23,29.14S29.18,74,44.5,74A37.1,37.1,0,0,0,59,70.84V60.16H49.24a2.24,2.24,0,0,1-2.31-2.26V48a2.28,2.28,0,0,1,2.31-2.39H72.59A2.33,2.33,0,0,1,74.77,48V80.13a2.44,2.44,0,0,1-1,2Zm107.44,7H170.66c-1.83,0-2.68-.75-3.53-2.51L161.18,73.1H124.82l-5.95,13.56a3.67,3.67,0,0,1-3.53,2.51H104.76a2.21,2.21,0,0,1-2.07-3.26L140.51,1.38A2.18,2.18,0,0,1,142.57,0h1.22a2.08,2.08,0,0,1,2.07,1.38L183.3,85.91a2.21,2.21,0,0,1-2.06,3.26ZM143.06,31.53h-.36L130.78,59.16h24.44L143.06,31.53ZM288,16.33H252V39.94h30a2.43,2.43,0,0,1,2.31,2.39v10.3A2.43,2.43,0,0,1,282,55H252V86.79a2.43,2.43,0,0,1-2.31,2.38H238.46a2.35,2.35,0,0,1-2.31-2.38V3.64a2.35,2.35,0,0,1,2.31-2.38H288a2.35,2.35,0,0,1,2.31,2.38v10.3A2.35,2.35,0,0,1,288,16.33Zm63.18,74.1c-19.09,0-33.8-15.45-33.8-34.54V3.64a2.43,2.43,0,0,1,2.31-2.38h11.55a2.34,2.34,0,0,1,2.31,2.38V55c0,10.68,7.05,19.09,17.63,19.09s17.75-8.41,17.75-19V3.64a2.34,2.34,0,0,1,2.31-2.38h11.55a2.43,2.43,0,0,1,2.31,2.38V55.89c0,19.09-14.71,34.54-33.92,34.54Zm134.74,0H483L432.13,32.78H432v54a2.34,2.34,0,0,1-2.31,2.38H418.64a2.43,2.43,0,0,1-2.31-2.38V2.26A2.32,2.32,0,0,1,418.64,0h3l50.57,55.51h.12V3.64a2.35,2.35,0,0,1,2.31-2.38h11.19a2.43,2.43,0,0,1,2.31,2.38V88.17a2.31,2.31,0,0,1-2.31,2.26Zm65.8-1.26H522.86a2.33,2.33,0,0,1-2.19-2.38V3.64a2.33,2.33,0,0,1,2.19-2.38h28.81c23.47,0,42.68,19.71,42.68,43.83,0,24.36-19.21,44.08-42.68,44.08Zm-1.45-72.72H536.36v57.4h13.86c15.8,0,27.35-12.31,27.35-28.76S566,16.45,550.22,16.45Z"/>
        <g>
          <polygon class="cls-2" points="4.54 138.42 513.6 138.42 513.6 183.42 4.54 183.42 4.54 138.42 4.54 138.42"/>
          <polygon class="cls-2" points="4.54 208.26 255.97 208.26 255.97 256.37 4.54 256.37 4.54 208.26 4.54 208.26"/>
          <path class="cls-3" d="M37.12,159.53c-.22,5.51-1.67,9.33-8,12.55l-3-3.13c5.6-2.35,6.77-4.81,6.94-9.42H22.85V156H46.13v3.55ZM26,149.22H43v3.55H26v-3.55ZM78.28,153c-2.29,9.77-6.53,15.56-14.91,19.08l-2.65-3.22c8-2.79,11.43-8.1,12.68-13.74H65.85a36.58,36.58,0,0,1-6.47,7.32l-3-2.46a31.89,31.89,0,0,0,9.34-12.54l3.7,1.34A30.44,30.44,0,0,1,68,151.62h7.45L78.28,153Zm8.28,18.91-2.92-3.3c8.83-3.27,13.6-10.87,15-19.22l4.07.84c-1.7,8.94-7.17,17.77-16.2,21.68Zm26.78-1.59V150.93h20.72v19.36ZM130,154.67H117.33v11.79H130V154.67Zm37.62-3.35a18.12,18.12,0,0,0-3.12-3.13l1.73-1.57a16.41,16.41,0,0,1,3.12,3.11l-1.73,1.59Zm-1.36,1-1.76,1.59a16.5,16.5,0,0,0-3.09-3.1l1.7-1.59a16.21,16.21,0,0,1,3.15,3.1Zm-17.62-.56,1.87-3.19a61.35,61.35,0,0,1,6.86,3.33L155.46,155a53,53,0,0,0-6.86-3.32Zm3.93,9.52a49.23,49.23,0,0,0-7.08-3.15l1.84-3.3a50.51,50.51,0,0,1,7.08,3.22l-1.84,3.23Zm12.93-6.67,2.57,3c-3.93,6.18-11.74,11.88-19.15,14.28L146.81,168a32.33,32.33,0,0,0,18.65-13.46Zm13.46,7.24v-4.09H197.2v4.09Zm77.69-5.28v15.39h-4.18V159.37a55.27,55.27,0,0,1-8.42,4.41l-2.12-3.55c6.33-2,15.44-8.35,18.9-12.74l3.15,2.49a49.15,49.15,0,0,1-7.33,6.54Zm16.07,15.36-2.93-3.3c8.84-3.27,13.61-10.87,15.05-19.22l4.08.84c-1.71,8.94-7.17,17.77-16.2,21.68Zm44-20.62,1.78-1.42a15.16,15.16,0,0,1,2.84,3.32l-1.89,1.43a12.6,12.6,0,0,0-2.73-3.33Zm-.9,4.92a16.34,16.34,0,0,0-2.76-3.3l1.79-1.42a16.52,16.52,0,0,1,2.82,3.3l-1.85,1.42Zm7.89,10.31-2.9,3.18a132.38,132.38,0,0,1-11.28-11.42c-.53-.62-.95-.93-1.43-.93s-.92.31-1.53,1c-1.2,1.25-4.1,4.66-6.21,7.34L297,162.86c2.68-2.8,6.72-7.41,8.33-9.14a3.87,3.87,0,0,1,2.79-1.4,3.66,3.66,0,0,1,2.79,1.57,76.86,76.86,0,0,0,12.76,12.6ZM333,161.8v-4.09h18.28v4.09Zm31.3,10L362.23,168a32.33,32.33,0,0,0,18.65-13.46l2.56,3c-3.93,6.18-11.73,11.88-19.15,14.28ZM364,151.71l1.87-3.19a60.51,60.51,0,0,1,6.86,3.33L370.87,155a51.75,51.75,0,0,0-6.86-3.32Zm3.94,9.52a50.23,50.23,0,0,0-7.08-3.15l1.84-3.3a51.59,51.59,0,0,1,7.08,3.22L368,161.23Zm26.12,9.7v-3.32h11v-3.38h-9.75V161h9.75v-3.13h-11v-3.27h14.61v16.32Zm29.32.87L421.33,168A32.48,32.48,0,0,0,440,154.47l2.56,3.05c-3.93,6.18-11.73,11.88-19.15,14.28Zm-2.81-19,2.45-3.22a56.18,56.18,0,0,1,7.22,4.83l-2.59,3.27a40,40,0,0,0-7.08-4.88Zm48,1.9c-3.21,2.18-4.94,4.77-4.94,7.85s2.59,5,9.5,5.28l-.5,3.82c-8.27-.27-13-3.21-13-8.94a11.47,11.47,0,0,1,4.49-8.8c-2.79.28-7.63.65-11,.84l-.31-3.74c3.85-.14,11.24-.59,14.19-.84,2.49-.2,5.58-.53,7.72-.81l.48,3.8a39.14,39.14,0,0,0-4.54.58,8.18,8.18,0,0,0-2.09,1Zm1.22,2.88,1.87-1.09a18.55,18.55,0,0,1,2.23,3.54l-1.93,1.09a16.67,16.67,0,0,0-2.17-3.54Zm5.21-2.69a16.88,16.88,0,0,1,2.23,3.52l-1.95,1.06a16.42,16.42,0,0,0-2.12-3.55l1.84-1Zm15.86,17.85a46,46,0,0,0-5.35-6.22l2.79-2.38a61.38,61.38,0,0,1,5.68,6l-3.12,2.6ZM49.36,241.57,46.24,245c-4.71-2.65-8.14-6.82-10.37-12.49A21.51,21.51,0,0,1,26.06,245l-3-2.85c10.29-5.25,10.82-16.18,11-23.22l3.87.08c0,1.49-.14,3.16-.3,4.89,1.39,9,5.32,14.76,11.73,17.72Zm22.71-3.72a31.47,31.47,0,0,1,2.76,2.54l-2.73,2.94a39.38,39.38,0,0,0-8.67-7.27l2.37-2.57c1.23.73,2.34,1.48,3.37,2.18a50.23,50.23,0,0,0,4.46-6.73H67a40.61,40.61,0,0,1-6.64,8.33l-3.37-2a34.89,34.89,0,0,0,9.87-14.78l3.68,1a39.19,39.19,0,0,1-1.65,4h8l2.51,1.42a70.45,70.45,0,0,1-7.39,11Zm34,4.72c-5,0-8.89-1-8.89-4a11.6,11.6,0,0,1,1.17-4.41l3.43.58a6.35,6.35,0,0,0-.81,2.57c0,1.31,1.62,1.73,5,1.73a32,32,0,0,0,5.55-.56v3.81c-1.81.16-3.85.27-5.47.27ZM106,227c-2.71,0-5.8.16-8.28.41l-.22-3.55c2.76-.25,6.33-.33,9.5-.33h0c1.37,0,2.76,0,3.88,0l-.06,3.58c-1.42-.11-3.12-.16-4.85-.16ZM95.38,243l-3.93,1.14A34.54,34.54,0,0,1,90,233.05v0a56.84,56.84,0,0,1,1.61-13.22l4,.7A44.84,44.84,0,0,0,93.82,233a26.77,26.77,0,0,0,1.56,10Zm33.75-15.76v-2.49h8.08v2.49Zm13.1.58a18.91,18.91,0,0,0,1.31-3.43l3.26.7a20.78,20.78,0,0,1-3.2,6.7c.5.9,1,1.4,1.61,1.45s.7-.42.81-2.23l2.87.81c-.53,4-1.75,5-4.21,4.66a4.59,4.59,0,0,1-3.29-2.15,24.74,24.74,0,0,1-2.78,2.27l-2.54-1.68h-7.28v-6.73h8.48v5.5a16.06,16.06,0,0,0,2.56-2.37,37,37,0,0,1-1.75-7.49h-9.7v1.87a18.85,18.85,0,0,1-3,10.84l-2.87-2.07a14.31,14.31,0,0,0,2.45-8.77v-4.61h12.72c-.09-.73-.15-1.45-.2-2.21l3.57,0c0,.76.08,1.51.17,2.24h1.94a14,14,0,0,0-1.33-1.34l2.06-1.57a10.78,10.78,0,0,1,2.29,2.1l-1.23.81h3.71v2.74h-7.17a33.72,33.72,0,0,0,.7,4Zm-7.92,2.82h-2.65v1.79h2.65v-1.79ZM129.46,238a19.83,19.83,0,0,1-3.42,6l-3.38-1.42a14.26,14.26,0,0,0,3.46-5.51l3.34,1Zm4.13-1,2.43-1.7a19.57,19.57,0,0,1,3.34,3.4l-2.79,1.73a18.56,18.56,0,0,0-3-3.43Zm-.36,3.24c0,1.09.25,1.26,1.31,1.28s2.65,0,3.65,0,1.14-.16,1.17-1.84l3.4.53c-.36,3.86-1,4.39-4.29,4.44-1.26,0-3.1,0-4.29,0-3.69-.08-4.44-.83-4.44-4.38v-3.61h3.49v3.58Zm11.51-3.66a28.61,28.61,0,0,1,4.07,5.92l-3.54,1.4a27.54,27.54,0,0,0-3.65-6l3.12-1.34Zm39.18,7.74a3.29,3.29,0,0,1-2.22.7c-.57,0-1.76,0-2.49,0l-.47-3.35c.59,0,1.48.05,1.89,0a.63.63,0,0,0,.53-.17c.48-.5.73-5,.9-13.33h-1.59c-.34,7.38-1.31,13.16-4.32,16.9l-3.32-1.54a6.25,6.25,0,0,0,.56-.69c-4,.44-9.67,1-13,1.26l-.5-3c1.5-.05,3.68-.16,5.93-.3v-1.34h-5.15v-2.55h5.15V236h-5v-9.08h5V226H160v-2.51h5.79v-.93c-1.58.12-3.15.17-4.54.14l-1.06-2.57a43.09,43.09,0,0,0,12.55-1.26l1.61,2.35a32.58,32.58,0,0,1-5,1v1.29h5.41V226h-5.41v.92h5.13V236h-5.13v.92h4.8v2.55h-4.8v1.14l4.72-.3.05,1.5c2-3.35,2.71-7.93,3-13.63H175.2v-3.27h2c.06-1.9.06-3.91.06-6h3.4c0,2.1,0,4.11-.06,6h5.1c-.3,11.48-.56,18.33-1.73,19.42Zm-18.09-15h-1.67v1.15h1.67v-1.15Zm0,3.11h-1.67v1.17h1.67v-1.17Zm5.25-3.11h-1.74v1.15h1.74v-1.15Zm0,4.28v-1.17h-1.74v1.17Zm40.43-2.82c2.46-1,4.88-2,6.58-2.74l1.39,3.41c-2.09.7-4.76,1.62-7.24,2.6a48.16,48.16,0,0,1,.22,4.86h-3.59c0-.56,0-1,0-1.51,0-.67,0-1.29,0-1.82-2.15,1.09-3.65,2.26-3.65,3.41s1.78,1.82,5.43,1.82a34.77,34.77,0,0,0,7.08-.7l.33,3.52a45.59,45.59,0,0,1-7.38.5c-5.77,0-9.23-1.67-9.23-5,0-2.79,3.12-5,6.83-6.9-.34-.7-.75-1-1.23-1a7.44,7.44,0,0,0-5,2.27,32.8,32.8,0,0,0-3,3.4l-3-2.43a28.85,28.85,0,0,0,5.82-8.12H197V223h6.33a31.2,31.2,0,0,0,1.06-3.46l3.87.78c-.25.92-.53,1.81-.84,2.68h7.95v3.36h-9.34a16.78,16.78,0,0,1-1.62,2.79,7.81,7.81,0,0,1,3.43-.93,3.63,3.63,0,0,1,3.65,2.55ZM234.67,245a3.8,3.8,0,0,1,0-7.6,3.76,3.76,0,0,1,3.79,3.8v0a3.79,3.79,0,0,1-3.79,3.77Zm0-6a2.22,2.22,0,0,0-2.2,2.24v0a2.22,2.22,0,0,0,4.43,0,2.24,2.24,0,0,0-2.23-2.24Z"/>
          <polygon class="cls-3" points="228.24 154.69 227.14 153.59 220.91 159.82 214.68 153.59 213.58 154.69 219.81 160.92 213.58 167.15 214.68 168.25 220.91 162.02 227.14 168.25 228.24 167.15 222.01 160.92 228.24 154.69"/>
        </g>
      </g>
    </g>
  </g>
</svg>
