<svg xmlns="http://www.w3.org/2000/svg" viewBox="0 0 148.51 21.76">
  <defs>
    <style>
      .cls-1 {
        fill: #fff;
      }
    </style>
  </defs>
  <title>logo</title>
  <g id="レイヤー_2" data-name="レイヤー 2">
    <g id="レイヤー_1-2" data-name="レイヤー 1">
      <g>
        <path class="cls-1" d="M18.26,19.77a15.18,15.18,0,0,1-7.46,2A10.75,10.75,0,0,1,0,10.91,10.83,10.83,0,0,1,10.8,0a11.34,11.34,0,0,1,7.34,2.81.59.59,0,0,1,0,.85l-1.86,2a.51.51,0,0,1-.78,0A6.81,6.81,0,0,0,11,3.87a6.91,6.91,0,0,0-6.74,7A6.86,6.86,0,0,0,11,17.8a9.4,9.4,0,0,0,3.58-.75V14.48h-2.4a.56.56,0,0,1-.58-.55V11.55a.57.57,0,0,1,.58-.58H18a.57.57,0,0,1,.54.58v7.73a.58.58,0,0,1-.24.49Z"/>
        <path class="cls-1" d="M44.51,20.67,35.24.33A.51.51,0,0,0,34.73,0h-.3a.55.55,0,0,0-.52.33L24.56,20.67a.53.53,0,0,0,.51.79h2.62a.9.9,0,0,0,.87-.61L30,17.59h9l1.47,3.26a.86.86,0,0,0,.88.61H44A.54.54,0,0,0,44.51,20.67Zm-13-6.44,2.94-6.64h.1l3,6.64Z"/>
        <path class="cls-1" d="M72.69,3.93h-8.9V9.61h7.43a.59.59,0,0,1,.57.58v2.47a.59.59,0,0,1-.57.58H63.79v7.65a.59.59,0,0,1-.57.57H60.45a.57.57,0,0,1-.57-.57V.88A.57.57,0,0,1,60.45.3H72.69a.57.57,0,0,1,.57.58V3.36a.57.57,0,0,1-.57.57Z"/>
        <path class="cls-1" d="M88.33,21.76A8.27,8.27,0,0,1,80,13.45V.88A.59.59,0,0,1,80.54.3h2.85A.57.57,0,0,1,84,.88V13.24a4.38,4.38,0,1,0,8.76,0V.88A.57.57,0,0,1,93.29.3h2.86a.59.59,0,0,1,.57.58V13.45a8.28,8.28,0,0,1-8.39,8.31Z"/>
        <path class="cls-1" d="M121.67,21.76H121L108.37,7.89h0v13a.57.57,0,0,1-.57.57H105a.59.59,0,0,1-.57-.57V.54A.56.56,0,0,1,105,0h.75L118.3,13.36h0V.88A.57.57,0,0,1,118.9.3h2.77a.59.59,0,0,1,.57.58V21.22a.56.56,0,0,1-.57.54Z"/>
        <path class="cls-1" d="M138,.3h-7.13a.57.57,0,0,0-.54.58v20a.56.56,0,0,0,.54.57H138A10.58,10.58,0,0,0,138,.3Zm-.36,17.47h-3.43V4h3.43a6.65,6.65,0,0,1,6.77,6.89A6.66,6.66,0,0,1,137.59,17.77Z"/>
      </g>
    </g>
  </g>
</svg>
