<svg viewBox="0 0 30 34.09" xmlns="http://www.w3.org/2000/svg"><path d="m16.1 5.27 9.19 5.31a.84.84 0 0 0 .84 0l2.63-1.53a.84.84 0 0 0 0-1.45l-12.66-7.31a2.26 2.26 0 0 0 -1.1-.29v5a2.26 2.26 0 0 1 1.1.27z" fill="#fff"/><path d="m4.55 11.05a2.21 2.21 0 0 1 .83-.86l8.52-4.92a2.26 2.26 0 0 1 1.1-.27v-5a2.17 2.17 0 0 0 -1.1.3l-12.81 7.45a2.25 2.25 0 0 0 -.81.84z" fill="#fff"/><path d="m4.55 11.05a2.2 2.2 0 0 0 -.26 1v9.84a2.08 2.08 0 0 0 .27 1.11.93.93 0 0 0 .05.1l-4.28 2.46a2.17 2.17 0 0 1 -.33-1.15v-14.76a2.15 2.15 0 0 1 .28-1.06z" fill="#fff"/><path d="m4.61 23.08a2.13 2.13 0 0 0 .77.75l8.52 4.92a2.17 2.17 0 0 0 1.1.3v5a2.23 2.23 0 0 1 -1.11-.3l-12.8-7.44a2.18 2.18 0 0 1 -.76-.75z" fill="#fff"/><path d="m25.39 23.08a2.13 2.13 0 0 1 -.77.75l-8.52 4.92a2.17 2.17 0 0 1 -1.1.3v5a2.23 2.23 0 0 0 1.11-.3l12.8-7.48a2.18 2.18 0 0 0 .76-.75z" fill="#fff"/><path d="m25.39 23.08 4.28 2.48a2.17 2.17 0 0 0 .33-1.15v-11.41a.71.71 0 0 0 -.35-.62l-4.26 7.38a.65.65 0 0 1 .32.57v1.61a2.16 2.16 0 0 1 -.32 1.14z" fill="#fff"/><path d="m28.94 12.37-13.19 7.63a1.5 1.5 0 0 0 -.75 1.3v2.85a.7.7 0 0 0 1.06.61l8.67-5a.67.67 0 0 1 .66 0l4.26-7.38a.72.72 0 0 0 -.71-.01z" fill="#fff"/></svg>
