<svg viewBox="0 0 174 45.77" xmlns="http://www.w3.org/2000/svg"><g fill="#fff"><path d="m57.81 13.25h4.82v24.09h-4.82z"/><path d="m107.83 37.34h5.24l-12-28.91-11.95 28.91h5.18l1.75-4.23h10zm-9.77-9 3-7.28 3 7.28z"/><path d="m134.25 13.25v13.73l-16.36-13.73v24.09h4.82v-13.75l16.36 13.75v-24.09z"/><path d="m169.18 13.25h4.82v24.09h-4.82z"/><path d="m89.12 13.25h-21.67v4.82h8.42v19.27h4.82v-19.27h8.43z"/><path d="m145.09 13.25h6.91c7.8 0 12.41 5.68 12.41 12.05s-4.78 12-12.41 12h-6.86zm4.82 19.86h2a7.83 7.83 0 1 0 0-15.64h-2z"/><path d="m14.53 20.82 16.65 16.65 6.29-6.29-16.65-16.65 8.3-8.29-6.24-6.24-22.88 22.88 6.24 6.24z"/><path d="m14.3 25.04h8.82v20.63h-8.82z" transform="matrix(.70710678 -.70710678 .70710678 .70710678 -19.52 23.58)"/><path d="m30.95 8.39h8.82v20.63h-8.82z" transform="matrix(.70710678 -.70710678 .70710678 .70710678 -2.87 30.48)"/></g></svg>