<svg xmlns="http://www.w3.org/2000/svg" xmlns:xlink="http://www.w3.org/1999/xlink" width="400" height="51" viewBox="0 0 400 51">
  <defs>
    <clipPath id="clip-アートボード_2">
      <rect width="400" height="51"/>
    </clipPath>
  </defs>
  <g id="アートボード_2" data-name="アートボード – 2" clip-path="url(#clip-アートボード_2)">
    <g id="RENOSY_ASSET_MANAGEMENT_1L" data-name="RENOSY ASSET MANAGEMENT_1L" transform="translate(0 16.002)">
      <g id="グループ_44" data-name="グループ 44" transform="translate(0 -0.002)">
        <g id="グループ_43" data-name="グループ 43">
          <g id="グループ_42" data-name="グループ 42">
            <g id="グループ_41" data-name="グループ 41">
              <path id="パス_409" data-name="パス 409" d="M9.149,12.713a5.518,5.518,0,0,0,3.8-5.333c0-3.651-2.6-5.92-6.793-5.92H0V20.146H3.719V13.191H5.062l4.667,6.953h4.4L8.95,12.788ZM6.192,10.151H3.719V4.8H6.192c1.816,0,2.989,1.045,2.989,2.667A2.689,2.689,0,0,1,6.192,10.151Z" transform="translate(0 -1.106)" fill="#fff"/>
              <path id="パス_410" data-name="パス 410" d="M77.163,4.825h7.295V1.46H73.42V20.146H84.511V16.781H77.163Z" transform="translate(-55.621 -1.106)" fill="#fff"/>
              <path id="パス_411" data-name="パス 411" d="M140.23,1.46V20.146h3.636V7.247l8.936,12.9h3.823V1.46h-3.636V14.42L144.135,1.46Z" transform="translate(-106.235 -1.106)" fill="#fff"/>
              <path id="パス_412" data-name="パス 412" d="M233.087,0a9.75,9.75,0,0,0-9.777,9.7,9.778,9.778,0,0,0,19.554,0A9.747,9.747,0,0,0,233.087,0Zm0,15.755a5.925,5.925,0,0,1-5.92-6.061,5.923,5.923,0,1,1,11.842,0A5.929,5.929,0,0,1,233.087,15.755Z" transform="translate(-169.174 0.001)" fill="#fff"/>
              <path id="パス_413" data-name="パス 413" d="M323.715,8.275l-2.473-.953c-.909-.337-1.954-.873-1.954-2.024,0-1.088.938-1.847,2.279-1.847a3.467,3.467,0,0,1,3.059,2.216l3.113-1.794A6.851,6.851,0,0,0,321.489,0c-3.566,0-6.058,2.279-6.058,5.542,0,2.47,1.45,4.2,4.429,5.278l2.279.815c1.445.507,2.092,1.2,2.092,2.189,0,1.217-1.074,2.065-2.609,2.065a4.132,4.132,0,0,1-3.748-2.65l-3.215,1.721a7.186,7.186,0,0,0,6.907,4.434c3.253,0,6.545-2.007,6.545-5.84C328.117,11.077,326.725,9.4,323.715,8.275Z" transform="translate(-238.379 0.002)" fill="#fff"/>
              <path id="パス_414" data-name="パス 414" d="M390.937,1.46l-4.3,7.108-4.3-7.108H378.05L384.7,12.005v8.141h3.775V12.005l.027-.041,6.633-10.5Z" transform="translate(-286.401 -1.106)" fill="#fff"/>
              <path id="パス_415" data-name="パス 415" d="M94.76,35.274a2.252,2.252,0,1,0-2.25-2.255v0A2.251,2.251,0,0,0,94.76,35.274Z" transform="translate(-70.083 -23.31)" fill="#fff"/>
            </g>
          </g>
        </g>
      </g>
      <g id="グループ_47" data-name="グループ 47" transform="translate(116.179 0.001)">
        <g id="グループ_46" data-name="グループ 46">
          <g id="グループ_45" data-name="グループ 45">
            <path id="パス_416" data-name="パス 416" d="M488.358,1.33l7.779,18.715H494.4l-2.487-5.99h-8.475l-2.485,5.993H479.24l7.809-18.715h1.309Zm-4.33,11.232h7.3l-3.663-8.878Z" transform="translate(-479.24 -1.01)" fill="#fff"/>
            <path id="パス_417" data-name="パス 417" d="M558.485,14.019A4.722,4.722,0,0,0,563,17.762c2.245.027,4.063-1.336,4.09-3.583,0-1.658-1.016-2.754-2.994-3.53l-2.541-.989c-2.594-1.016-3.983-2.621-3.956-4.972.027-2.861,2.3-4.705,5.241-4.679a5.578,5.578,0,0,1,5.375,4.116l-1.525.589a4.074,4.074,0,0,0-3.9-3.127c-1.9,0-3.5,1.122-3.5,3.127,0,1.525,1.016,2.594,2.967,3.4l2.487,1.016c2.674,1.1,4.063,2.621,4.063,4.972-.027,3.263-2.594,5.268-5.828,5.241a6.161,6.161,0,0,1-6.1-4.785Z" transform="translate(-538.058 -0.009)" fill="#fff"/>
            <path id="パス_418" data-name="パス 418" d="M620.835,14.019a4.722,4.722,0,0,0,4.519,3.743c2.245.027,4.063-1.336,4.09-3.583,0-1.658-1.016-2.754-2.994-3.53l-2.541-.989c-2.594-1.016-3.983-2.621-3.956-4.972.027-2.861,2.3-4.705,5.241-4.679a5.577,5.577,0,0,1,5.375,4.119l-1.525.589a4.074,4.074,0,0,0-3.9-3.127c-1.9,0-3.5,1.122-3.5,3.127,0,1.525,1.016,2.594,2.967,3.4l2.487,1.016c2.674,1.1,4.063,2.621,4.063,4.972-.027,3.263-2.594,5.268-5.828,5.241a6.161,6.161,0,0,1-6.1-4.785Z" transform="translate(-585.293 -0.009)" fill="#fff"/>
            <path id="パス_419" data-name="パス 419" d="M686.73,1.33h10V2.855h-8.342V9.538h7.7v1.525h-7.7v7.459h8.4v1.525H686.73Z" transform="translate(-636.429 -1.01)" fill="#fff"/>
            <path id="パス_420" data-name="パス 420" d="M743.59,1.33h13.047V2.908h-5.668V20.048h-1.685V2.908H743.59Z" transform="translate(-679.505 -1.01)" fill="#fff"/>
            <path id="パス_421" data-name="パス 421" d="M867.458,1.33V20.045h-1.6V4.22l-7.7,15.828H857L849.3,4.22V20.048h-1.6V1.33h1.978l7.942,16.417L865.535,1.33h1.922Z" transform="translate(-758.376 -1.01)" fill="#fff"/>
            <path id="パス_422" data-name="パス 422" d="M951.538,1.33l7.779,18.715h-1.738l-2.485-5.988h-8.475l-2.487,5.99H942.42l7.806-18.715h1.312Zm-4.33,11.232h7.3l-3.663-8.878Z" transform="translate(-830.134 -1.01)" fill="#fff"/>
            <path id="パス_423" data-name="パス 423" d="M1042.094,1.33V20.045h-1.578l-12.461-16.23v16.23h-1.6V1.33h1.685l12.351,16.121V1.33Z" transform="translate(-893.793 -1.01)" fill="#fff"/>
            <path id="パス_424" data-name="パス 424" d="M1115.52,1.33l7.779,18.715h-1.738l-2.487-5.99H1110.6l-2.487,5.99H1106.4l7.806-18.715h1.314Zm-4.33,11.232h7.3l-3.663-8.878Z" transform="translate(-954.361 -1.01)" fill="#fff"/>
            <path id="パス_425" data-name="パス 425" d="M1201.015,5.365a7.134,7.134,0,0,0-6.443-3.77,7.83,7.83,0,0,0-7.7,8.1,7.812,7.812,0,0,0,7.726,8.075,6.93,6.93,0,0,0,7.059-6.79h-7.486V9.4h9.224v.7c0,5.188-3.5,9.251-8.824,9.251A9.463,9.463,0,0,1,1185.16,9.7,9.507,9.507,0,0,1,1194.6.02a8.954,8.954,0,0,1,7.889,4.572Z" transform="translate(-1014.028 -0.017)" fill="#fff"/>
            <path id="パス_426" data-name="パス 426" d="M1282.2,1.33h10V2.855h-8.342V9.538h7.7v1.525h-7.7v7.459h8.4v1.525H1282.2Z" transform="translate(-1087.543 -1.01)" fill="#fff"/>
            <path id="パス_427" data-name="パス 427" d="M1365.158,1.33V20.045h-1.6V4.22l-7.7,15.828H1354.7l-7.7-15.828V20.048h-1.6V1.33h1.978l7.942,16.417,7.915-16.417h1.922Z" transform="translate(-1135.422 -1.01)" fill="#fff"/>
            <path id="パス_428" data-name="パス 428" d="M1451.05,1.33h10V2.855h-8.342V9.538h7.7v1.525h-7.7v7.459h8.4v1.525H1451.05Z" transform="translate(-1215.46 -1.01)" fill="#fff"/>
            <path id="パス_429" data-name="パス 429" d="M1529.324,1.33V20.045h-1.578l-12.461-16.23v16.23h-1.6V1.33h1.685l12.352,16.121V1.33Z" transform="translate(-1262.907 -1.01)" fill="#fff"/>
            <path id="パス_430" data-name="パス 430" d="M1596.18,1.33h13.047V2.908h-5.668V20.048h-1.685V2.908h-5.695Z" transform="translate(-1325.407 -1.01)" fill="#fff"/>
          </g>
        </g>
      </g>
    </g>
  </g>
</svg>
