<svg fill="#fff" viewBox="0 0 400 51.22" xmlns="http://www.w3.org/2000/svg"><g fill="#fff"><path d="m24.18 7.93 13.82 7.97a1.24 1.24 0 0 0 1.26 0l4-2.31a1.26 1.26 0 0 0 0-2.17l-19-11a3.34 3.34 0 0 0 -1.72-.42v7.48a3.24 3.24 0 0 1 1.64.45z"/><path d="m6.84 16.61a3.23 3.23 0 0 1 1.25-1.29l12.8-7.39a3.25 3.25 0 0 1 1.65-.45v-7.48a3.26 3.26 0 0 0 -1.66.45l-19.24 11.2a3.25 3.25 0 0 0 -1.22 1.25z"/><path d="m6.84 16.61a3.2 3.2 0 0 0 -.4 1.56v14.83a3.32 3.32 0 0 0 .41 1.58 1.09 1.09 0 0 0 .08.15l-6.44 3.67a3.31 3.31 0 0 1 -.49-1.72v-22.18a3.26 3.26 0 0 1 .42-1.6z"/><path d="m6.93 34.68a3.22 3.22 0 0 0 1.16 1.13l12.8 7.39a3.34 3.34 0 0 0 1.65.44v7.58a3.32 3.32 0 0 1 -1.67-.45l-19.24-11.24a3.33 3.33 0 0 1 -1.14-1.13z"/><path d="m38.14 34.68a3.22 3.22 0 0 1 -1.14 1.13l-12.82 7.39a3.33 3.33 0 0 1 -1.64.44v7.58a3.31 3.31 0 0 0 1.66-.45l19.24-11.24a3.25 3.25 0 0 0 1.14-1.13z"/><path d="m38.14 34.68 6.44 3.72a3.31 3.31 0 0 0 .49-1.72v-17.17a1.05 1.05 0 0 0 -.53-.92l-6.4 11.08a1 1 0 0 1 .49.86v2.47a3.34 3.34 0 0 1 -.49 1.68z"/><path d="m43.47 18.59-19.81 11.41a2.25 2.25 0 0 0 -1.12 2v4.29a1.06 1.06 0 0 0 1.6.92l13-7.52a1 1 0 0 1 1 0l6.4-11.08a1.05 1.05 0 0 0 -1.07-.02z"/><path d="m106.12 17.54a1.16 1.16 0 0 1 1.21-.88h1.67a1.16 1.16 0 0 1 1.22.88l5.78 16.46c.27.76-.07 1.26-.88 1.26h-1.19a1.17 1.17 0 0 1 -1.22-.88l-1.31-3.85h-6.49l-1.28 3.83a1.16 1.16 0 0 1 -1.22.92h-1.19c-.81 0-1.15-.5-.88-1.26zm4.46 10.16-1.65-4.95c-.31-1-.72-2.87-.72-2.87s-.43 1.83-.72 2.87l-1.67 4.95z"/><path d="m91.94 31.42v-5.2a1 1 0 0 0 -1.07-1.09h-3.71a1 1 0 0 0 -1.09 1.09v.71a1.09 1.09 0 0 0 1.09 1.07h1.78v2.3c-4.49 3.79-10.74 1.27-10.88-4.57-.09-3.57 2.15-6.63 6.28-6.63a7.87 7.87 0 0 1 4.13 1.15c.65.37 1.12.32 1.51-.28l.47-.74a1 1 0 0 0 -.24-1.51 11 11 0 0 0 -6-1.69 9.45 9.45 0 0 0 -9.6 9.66c0 9.62 11.14 12.25 16.88 6.51.51-.49.45-.43.45-.78z"/><path d="m137.17 19.21h-5a1 1 0 0 1 -1.1-1.08v-.73a1 1 0 0 1 1.1-1.1h13.32a1 1 0 0 1 1.08 1.1v.73a1 1 0 0 1 -1.08 1.08h-5v14.53a1 1 0 0 1 -1.11 1.11h-1.17a1 1 0 0 1 -1.08-1.11z"/><path d="m155.26 17.4a1 1 0 0 1 1.09-1.1h8.9a1 1 0 0 1 1.1 1.1v.73a1 1 0 0 1 -1.1 1.08h-6.65v4.87h5.16a1 1 0 0 1 1.11 1.08v.72a1 1 0 0 1 -1.11 1.1h-5.16v5h7.08a1 1 0 0 1 1.1 1.08v.73a1 1 0 0 1 -1.1 1.1h-9.35a1 1 0 0 1 -1.07-1.1z"/><path d="m184 16a10.42 10.42 0 0 1 6.06 1.84 1 1 0 0 1 .21 1.51l-.48.77c-.36.61-.85.65-1.48.27a7.79 7.79 0 0 0 -4.17-1.31c-4.06 0-6.22 2.95-6.22 6.38s2.25 6.63 6.24 6.63a7.78 7.78 0 0 0 4.55-1.63.93.93 0 0 1 1.51.18l.52.7a1 1 0 0 1 -.16 1.51 10.35 10.35 0 0 1 -6.56 2.3c-5.81 0-9.57-4.21-9.57-9.67a9.24 9.24 0 0 1 9.55-9.48z"/><path d="m200.75 17.4a1 1 0 0 1 1.1-1.1h1.15a1 1 0 0 1 1.08 1.1v6.77h8.5v-6.77a1 1 0 0 1 1.1-1.1h1.17a1 1 0 0 1 1.15 1.1v16.34a1 1 0 0 1 -1.09 1.11h-1.21a1 1 0 0 1 -1.1-1.11v-6.69h-8.5v6.69a1 1 0 0 1 -1.1 1.11h-1.2a1 1 0 0 1 -1.07-1.11z"/><path d="m227.13 17.4a1 1 0 0 1 1.08-1.1h1.42a1.32 1.32 0 0 1 1.31.72l6.58 10c.7 1.11 1.53 2.87 1.53 2.87s-.18-1.78-.18-2.87v-9.62a1 1 0 0 1 1.1-1.1h1.17a1 1 0 0 1 1.11 1.1v16.34a1 1 0 0 1 -1.11 1.11h-1.42a1.35 1.35 0 0 1 -1.28-.72l-6.6-9.94c-.68-1.11-1.54-2.86-1.54-2.86s.18 1.78.18 2.86v9.58a1 1 0 0 1 -1.08 1.1h-1.2a1 1 0 0 1 -1.08-1.1z"/><path d="m261.54 16a9.26 9.26 0 0 1 9.58 9.44 9.58 9.58 0 1 1 -19.15 0 9.27 9.27 0 0 1 9.57-9.44zm0 16.09c3.56 0 6.11-2.87 6.11-6.63a6.11 6.11 0 1 0 -12.21 0c0 3.75 2.56 6.62 6.1 6.62z"/><path d="m281.17 17.4a1 1 0 0 1 1.08-1.1h1.2a1 1 0 0 1 1.08 1.1v14.54h6.92a1 1 0 0 1 1.1 1.08v.72a1 1 0 0 1 -1.1 1.11h-9.2a1 1 0 0 1 -1.08-1.11z"/><path d="m308.62 16a9.26 9.26 0 0 1 9.58 9.44 9.58 9.58 0 1 1 -19.16 0 9.26 9.26 0 0 1 9.58-9.44zm0 16.09c3.56 0 6.11-2.87 6.11-6.63a6.12 6.12 0 1 0 -12.22 0c0 3.75 2.55 6.62 6.11 6.62z"/><path d="m353.15 17.4a1 1 0 0 1 1.08-1.1h1.2a1 1 0 0 1 1.08 1.1v16.34a1 1 0 0 1 -1.08 1.11h-1.2a1 1 0 0 1 -1.08-1.11z"/><path d="m367.37 17.4a1 1 0 0 1 1.08-1.1h8.92a1 1 0 0 1 1.11 1.1v.73a1 1 0 0 1 -1.11 1.08h-6.64v4.87h5.16a1 1 0 0 1 1.1 1.08v.72a1 1 0 0 1 -1.1 1.1h-5.16v5h7.07a1 1 0 0 1 1.11 1.02v.73a1 1 0 0 1 -1.11 1.1h-9.35a1 1 0 0 1 -1.08-1.1z"/><path d="m388 31.76.57-.83c.43-.57.85-.61 1.51-.23a6.47 6.47 0 0 0 3.76 1.35c1.71 0 2.77-.85 2.77-2.12 0-3.51-8.63-2.79-8.63-8.56 0-3.27 2.71-5.38 6.24-5.38a8.61 8.61 0 0 1 4.78 1.41 1.05 1.05 0 0 1 .34 1.49l-.47.86c-.39.76-.95.65-1.49.36a6.07 6.07 0 0 0 -3.22-1c-1.72 0-2.82.83-2.82 2.09 0 3.47 8.63 2.59 8.63 8.5 0 3-2.25 5.47-6.13 5.47a9.91 9.91 0 0 1 -5.7-1.87 1 1 0 0 1 -.14-1.54z"/><path d="m343.82 31.42v-5.2a1 1 0 0 0 -1.07-1.09h-3.7a1 1 0 0 0 -1.1 1.09v.71a1.09 1.09 0 0 0 1.1 1.09h1.77v2.3c-4.48 3.79-10.73 1.27-10.88-4.57-.08-3.57 2.15-6.63 6.29-6.63a7.86 7.86 0 0 1 4.12 1.15c.65.37 1.12.32 1.51-.28l.47-.74a1 1 0 0 0 -.23-1.51 11 11 0 0 0 -6-1.69 9.46 9.46 0 0 0 -9.61 9.66c0 9.62 11.15 12.25 16.89 6.51.49-.51.44-.45.44-.8z"/></g></svg>