<svg id="レイヤー_1" data-name="レイヤー 1" xmlns="http://www.w3.org/2000/svg" viewBox="0 0 400 51"><defs><style>.cls-1{fill:#fff;}</style></defs><title>アートボード 1 のコピー 2</title><polygon class="cls-1" points="384.5 16.92 377.59 21.57 370.63 16.92 355.19 16.92 367.67 26.05 368.43 23.71 362.23 19.23 369.88 19.23 377.59 24.36 385.25 19.23 392.96 19.23 386.72 23.73 387.49 26.07 400 16.92 384.5 16.92"/><polygon class="cls-1" points="377.61 27.21 377.82 27.05 377.6 27.2 377.61 27.21"/><polygon class="cls-1" points="384.05 22.88 377.82 27.05 377.61 27.21 377.6 27.2 377.59 27.2 371.1 22.88 364.39 43.23 377.59 32.5 390.79 43.23 384.05 22.88"/><polygon class="cls-1" points="377.58 3.28 374.02 14.07 374.02 14.07 377.58 3.28"/><polygon class="cls-1" points="377.62 18.71 377.91 18.5 377.61 18.7 377.62 18.71"/><polygon class="cls-1" points="377.58 3.28 373.41 15.92 377.59 18.71 377.61 18.7 381.76 15.91 377.58 3.28"/><polygon class="cls-1" points="4.2 27.08 13.88 36.79 23.56 27.08 23.56 42.05 27.75 42.05 27.75 16.96 13.88 30.85 0 16.96 0 42.05 4.2 42.05 4.2 27.08"/><polygon class="cls-1" points="134.28 26.43 151.1 42.91 151.1 17.82 147.29 17.82 147.29 33.44 130.46 16.96 130.46 42.05 134.28 42.05 134.28 26.43"/><path class="cls-1" d="M82.42,29.91v-.07c0-6.83-5.27-12.06-12.9-12.06h-9V42.05h9C77.15,42.05,82.42,36.75,82.42,29.91ZM64.73,21.66h4.79c5.1,0,8.43,3.5,8.43,8.25V30c0,4.75-3.33,8.19-8.43,8.19H64.73Z"/><polygon class="cls-1" points="101.44 38.24 89.26 38.24 89.26 31.72 101.05 31.72 101.05 27.9 89.26 27.9 89.26 21.59 101.47 21.59 101.47 17.78 85.53 17.78 85.53 42.05 101.44 42.05 101.44 38.24"/><path class="cls-1" d="M110.09,33.59h5.34l6,8.46h5.06l-6.55-9.19c3.36-1,5.76-3.36,5.76-7.35v-.07a7.37,7.37,0,0,0-2-5.24,9.84,9.84,0,0,0-7-2.42H105.82V42.05h4.27Zm0-11.93h6.2c3.16,0,5,1.42,5,4v.07c0,2.46-1.94,4.06-5,4.06h-6.24Z"/><path class="cls-1" d="M43.93,43.23A13.43,13.43,0,1,0,30.51,29.81,13.42,13.42,0,0,0,43.93,43.23Zm0-22.41a9,9,0,1,1-9,9A9,9,0,0,1,44,20.82Z"/><polygon class="cls-1" points="248.94 33.31 232.11 16.83 232.11 41.92 235.92 41.92 235.92 26.3 252.75 42.78 252.75 17.69 248.94 17.69 248.94 33.31"/><path class="cls-1" d="M175.45,28c-4.69-1.11-5.8-1.94-5.8-3.82v-.07c0-1.59,1.46-2.87,4-2.87a11,11,0,0,1,6.59,2.49l2.28-3.22a13.42,13.42,0,0,0-8.8-3.05c-4.82,0-8.29,2.87-8.29,7v.07c0,4.47,2.91,6,8.08,7.24,4.51,1,5.48,2,5.48,3.71v.07c0,1.81-1.67,3-4.3,3A11.27,11.27,0,0,1,167,35.46l-2.56,3a14.93,14.93,0,0,0,10.12,3.88c5.1,0,8.67-2.7,8.67-7.24v-.07C183.21,31.05,180.58,29.22,175.45,28Z"/><polygon class="cls-1" points="205.54 17.77 185.84 17.77 185.84 21.73 193.54 21.73 193.54 42.05 197.84 42.05 197.84 21.73 205.54 21.73 205.54 17.77"/><path class="cls-1" d="M278.93,29.84c0-6.83-5.27-12.07-12.9-12.07h-9V42.05h9c7.63,0,12.9-5.31,12.9-12.14Zm-4.47.14c0,4.75-3.33,8.18-8.43,8.18h-4.78V21.66H266c5.1,0,8.43,3.5,8.43,8.25Z"/><path class="cls-1" d="M327,25.51v-.07a7.35,7.35,0,0,0-2-5.24,9.8,9.8,0,0,0-7-2.43H307.12V42.05h4.26V33.59h5.34l6,8.46h5.06l-6.56-9.19C324.56,31.89,327,29.49,327,25.51Zm-15.57,4.3V21.66h6.21c3.15,0,5,1.42,5,4v.07c0,2.46-1.95,4.06-5,4.06Z"/><path class="cls-1" d="M340.81,17.77h-9.05V42.05h9.05c7.63,0,12.9-5.31,12.9-12.14v-.07C353.71,23,348.44,17.77,340.81,17.77ZM349.24,30c0,4.75-3.33,8.18-8.43,8.18H336V21.66h4.79c5.1,0,8.43,3.5,8.43,8.25Z"/><path class="cls-1" d="M203.43,42.05h4.37l2.67-5.25h11.09l2.67,5.25h4.51L216,16.9Zm9-9,3.62-7.1,3.61,7.1Z"/><path class="cls-1" d="M278.7,42.05h4.37l2.67-5.25h11.09l2.68,5.25H304L291.29,16.9Zm9-9,3.62-7.1L294.9,33Z"/></svg>