<svg fill="#fff" height="31.23" viewBox="0 0 30 31.23" width="30" xmlns="http://www.w3.org/2000/svg"><g fill="#fff"><path d="m24.29 0h-20.22v6.28h-4.07v15.9h4.07v9.05h25.93v-25.52zm-20.29 15.46v2.59a.22.22 0 0 1 -.21.21h-.7a.2.2 0 0 1 -.2-.21v-7.29a.2.2 0 0 1 .2-.21h2.51a2.46 2.46 0 1 1 0 4.91zm24.37 14.14h-22.67v-7.42h19.17v-15.9h-19.17v-4.65h17.92l4.75 4.75zm-18.56-11.55v-7.29a.2.2 0 0 1 .18-.21h2.28a3.69 3.69 0 0 1 3.48 3.84 3.7 3.7 0 0 1 -3.48 3.87h-2.27a.2.2 0 0 1 -.19-.21zm11.79-3.92a.22.22 0 0 1 .21.21v.6a.22.22 0 0 1 -.21.21h-2.94v2.9a.22.22 0 0 1 -.21.21h-.71a.21.21 0 0 1 -.21-.21v-7.29a.21.21 0 0 1 .21-.21h4.4a.21.21 0 0 1 .21.21v.62a.21.21 0 0 1 -.21.21h-3.48v2.54z"/><path d="m14.65 14.39a2.58 2.58 0 0 0 -2.52-2.79h-1.31v5.61h1.31a2.6 2.6 0 0 0 2.52-2.82z"/><path d="m5.54 11.65h-1.54v2.73h1.54a1.4 1.4 0 0 0 1.4-1.38 1.36 1.36 0 0 0 -1.4-1.35z"/></g></svg>