<svg enable-background="new 0 0 30 31.2" viewBox="0 0 30 31.2" xmlns="http://www.w3.org/2000/svg"><path d="m4.9 30.4v-29.6h19.1l5.2 5.3v24.3z" fill="#fcfcfc"/><path d="m23.6 1.6 4.8 4.8v23.2h-22.7v-28h17.9m.7-1.6h-20.2v31.2h25.9v-25.5l-5.7-5.7zm-12 11.6h-1.5v5.6h1.3c1.4 0 2.6-1.2 2.5-2.7v-.2c.2-1.3-.9-2.6-2.3-2.7zm-6.8.1h-1.5v2.7h1.5c.8 0 1.4-.6 1.4-1.4s-.6-1.3-1.4-1.3zm-5.5-5.4v15.9h24.9v-15.9zm5.9 9.2h-1.9v2.6c0 .1-.1.2-.2.2h-.7c-.1 0-.2-.1-.2-.2v-7.3c0-.1.1-.2.2-.2h2.5c1.4-.1 2.5.9 2.6 2.3.1 1.3-.9 2.5-2.3 2.6zm6.4 2.8h-2.3c-.1 0-.2-.1-.2-.2v-7.3c0-.1.1-.2.2-.2h2.3c2 .1 3.6 1.8 3.5 3.8 0 2-1.5 3.7-3.5 3.9zm10-6.9c0 .1-.1.2-.2.2h-3.5v2.5h2.9c.1 0 .2.1.2.2v.6c0 .1-.1.2-.2.2h-2.9v2.9c0 .1-.1.2-.2.2h-.7c-.1 0-.2-.1-.2-.2v-7.3c0-.1.1-.2.2-.2h4.4c.1 0 .2.1.2.2z"/><path d="m5.6 10.6h-2.5c-.1 0-.2.1-.2.2v7.3c0 .1.1.2.2.2h.7c.1 0 .2-.1.2-.2v-2.6h1.9c1.4-.1 2.4-1.3 2.3-2.6-.1-1.4-1.2-2.4-2.6-2.3zm-.1 3.8h-1.5v-2.7h1.5c.8 0 1.4.6 1.4 1.3 0 .8-.6 1.4-1.4 1.4zm6.8-3.8h-2.3c-.1 0-.2.1-.2.2v7.3c0 .1.1.2.2.2h2.3c2-.1 3.6-1.8 3.5-3.9 0-2-1.5-3.7-3.5-3.8zm-.2 6.6h-1.3v-5.6h1.5c1.4.1 2.5 1.4 2.4 2.8v.2c0 1.4-1.1 2.6-2.6 2.6zm10-6.6h-4.4c-.1 0-.2.1-.2.2v7.3c0 .1.1.2.2.2h.7c.1 0 .2-.1.2-.2v-2.9h2.9c.1 0 .2-.1.2-.2v-.6c0-.1-.1-.2-.2-.2h-2.9v-2.5h3.5c.1 0 .2-.1.2-.2v-.6c0-.3 0-.3-.2-.3z" fill="#fff"/></svg>