<svg enable-background="new 0 0 400 51.2" viewBox="0 0 400 51.2" xmlns="http://www.w3.org/2000/svg"><path d="m24.2 7.9 13.8 8c.4.2.9.2 1.3 0l4-2.3c.6-.4.8-1.1.4-1.7-.1-.2-.3-.3-.4-.4l-19-11c-.6-.4-1.2-.5-1.8-.5v7.5c.6 0 1.2.1 1.7.4zm-17.4 8.7c.3-.5.7-1 1.2-1.3l12.8-7.4c.5-.3 1.1-.4 1.6-.4v-7.5c-.6 0-1.2.2-1.7.4l-19.1 11.2c-.5.3-.9.7-1.2 1.2zm0 0c-.3.5-.4 1-.4 1.6v14.8c0 .6.1 1.1.4 1.6 0 .1 0 .1.1.2l-6.4 3.7c-.3-.6-.5-1.2-.5-1.8v-22.2c0-.6.1-1.1.4-1.6zm.1 18.1c.3.5.7.9 1.2 1.1l12.8 7.4c.5.3 1.1.4 1.6.4v7.6c-.6 0-1.2-.2-1.7-.5l-19.2-11.2c-.5-.3-.9-.7-1.1-1.1zm31.2 0c-.3.5-.7.9-1.1 1.1l-12.8 7.4c-.5.3-1.1.4-1.6.4v7.6c.6 0 1.2-.2 1.7-.5l19.2-11.2c.5-.3.9-.7 1.1-1.1zm0 0 6.4 3.7c.3-.5.5-1.1.5-1.7v-17.2c0-.4-.2-.7-.5-.9l-6.4 11.1c.3.2.5.5.5.9v2.4c0 .6-.2 1.2-.5 1.7zm5.4-16.1-19.8 11.4c-.7.4-1.1 1.2-1.1 2v4.3c0 .6.5 1.1 1.1 1.1.2 0 .4 0 .5-.1l13-7.5c.3-.2.7-.2 1 0l6.4-11.1c-.4-.3-.8-.3-1.1-.1zm62.6-1.1c.1-.5.6-.9 1.2-.9h1.7c.6 0 1.1.3 1.2.9l5.8 16.5c.3.8-.1 1.3-.9 1.3h-1.2c-.6 0-1.1-.3-1.2-.9l-1.3-3.9h-6.5l-1.3 3.8c-.1.6-.6 1-1.2.9h-1.2c-.8 0-1.2-.5-.9-1.3zm4.5 10.2-1.7-5c-.3-1-.7-2.9-.7-2.9s-.4 1.8-.7 2.9l-1.7 5zm-18.7 3.7v-5.2c.1-.5-.4-1-.9-1.1h-3.9c-.5-.1-1 .4-1.1.9v.9c0 .6.5 1.1 1.1 1.1h1.8v2.3c-4.5 3.8-10.7 1.3-10.9-4.6-.1-3.6 2.2-6.6 6.3-6.6 1.5 0 2.9.4 4.1 1.1.7.4 1.1.3 1.5-.3l.5-.7c.4-.4.3-1-.1-1.4l-.1-.1c-1.8-1.1-3.9-1.7-6-1.7-5.2-.1-9.5 4.1-9.6 9.3v.4c0 9.6 11.1 12.2 16.9 6.5.5-.5.4-.4.4-.8zm45.3-12.2h-5c-.5.1-1-.3-1.1-.9v-.9c-.1-.5.3-1 .9-1.1h13.5c.6 0 1 .4 1.1.9v.9c0 .6-.4 1-.9 1.1h-5.2v14.5c.1.5-.3 1-.9 1.1h-1.4c-.6 0-1-.4-1.1-.9v-.2zm18.1-1.8c-.1-.5.3-1 .9-1.1h9.1c.5-.1 1 .3 1.1.9v.9c0 .6-.4 1-.9 1.1h-6.8v4.9h5.2c.5-.1 1 .3 1.1.9v.9c.1.5-.3 1-.9 1.1h-5.4v5h7.1c.5-.1 1 .3 1.1.9v.9c.1.5-.3 1-.9 1.1h-9.6c-.6 0-1-.4-1.1-.9zm28.7-1.4c2.2 0 4.3.6 6.1 1.8.5.3.6.9.3 1.4l-.1.1-.5.8c-.4.6-.9.6-1.5.3-1.2-.8-2.7-1.3-4.2-1.3-4.1 0-6.2 3-6.2 6.4s2.2 6.6 6.2 6.6c1.7 0 3.2-.6 4.6-1.6.3-.4.9-.4 1.3-.1.1.1.1.2.2.2l.5.7c.4.4.4 1 0 1.4l-.1.1c-1.9 1.5-4.2 2.3-6.6 2.3-5.8 0-9.6-4.2-9.6-9.7-.1-5.1 3.9-9.3 9-9.5.2.1.4.1.6.1zm16.8 1.4c-.1-.5.3-1 .9-1.1h1.3c.6 0 1 .4 1.1.9v7h8.5v-6.8c-.1-.5.3-1 .9-1.1h1.4c.5-.1 1.1.3 1.1.8v16.6c.1.5-.3 1-.9 1.1h-1.4c-.5.1-1-.3-1.1-.9v-6.9h-8.5v6.7c.1.5-.3 1-.9 1.1h-1.4c-.6 0-1-.4-1.1-.9v-.2zm26.3 0c-.1-.5.3-1 .9-1.1h1.6c.5-.1 1.1.2 1.3.7l6.6 10c.7 1.1 1.5 2.9 1.5 2.9s-.2-1.8-.2-2.9v-9.6c-.1-.5.3-1 .9-1.1h1.4c.5-.1 1 .3 1.1.9v16.5c.1.5-.3 1-.9 1.1h-1.6c-.5 0-1-.2-1.3-.7l-6.6-9.9c-.7-1.1-1.5-2.9-1.5-2.9s.2 1.8.2 2.9v9.6c.1.5-.3 1-.9 1.1h-1.4c-.6 0-1-.4-1.1-.9zm34.4-1.4c5.1-.2 9.4 3.8 9.6 8.9v.5c.2 5.3-4 9.7-9.3 9.9s-9.7-4-9.9-9.3v-.6c-.1-5.1 4-9.3 9.1-9.4zm0 16.1c3.6 0 6.1-2.9 6.1-6.6.1-3.4-2.5-6.2-5.9-6.4-3.4-.1-6.2 2.5-6.4 5.9v.5c.1 3.7 2.7 6.6 6.2 6.6zm19.7-14.7c-.1-.5.3-1 .9-1.1h1.4c.6 0 1 .4 1.1.9v14.7h6.9c.5-.1 1 .3 1.1.9v.9c.1.5-.3 1-.9 1.1h-9.4c-.6 0-1-.4-1.1-.9zm27.4-1.4c5.1-.2 9.4 3.8 9.6 8.9v.5c0 5.3-4.3 9.6-9.6 9.6s-9.6-4.3-9.6-9.6c-.1-5.1 4-9.3 9.1-9.4zm0 16.1c3.6 0 6.1-2.9 6.1-6.6.2-3.4-2.4-6.3-5.8-6.5s-6.3 2.4-6.5 5.8v.7c.1 3.7 2.7 6.6 6.2 6.6zm44.5-14.7c-.1-.5.3-1 .9-1.1h1.4c.6 0 1 .4 1.1.9v16.5c.1.5-.3 1-.9 1.1h-1.4c-.6 0-1-.4-1.1-.9zm14.3 0c-.1-.5.3-1 .9-1.1h9.1c.5-.1 1 .3 1.1.9v.9c0 .6-.4 1-.9 1.1h-6.8v4.9h5.2c.5-.1 1 .3 1.1.9v.9c.1.5-.3 1-.9 1.1h-5.4v5h7.1c.5-.1 1 .3 1.1.9v.8c.1.5-.3 1-.9 1.1h-9.6c-.6 0-1-.4-1.1-.9zm20.6 14.4.6-.8c.4-.6.9-.6 1.5-.2 1.1.8 2.4 1.3 3.8 1.3 1.7 0 2.8-.9 2.8-2.1 0-3.5-8.6-2.8-8.6-8.6 0-3.3 2.7-5.4 6.2-5.4 1.7 0 3.4.5 4.8 1.4.5.3.7.9.4 1.4v.1l-.5.9c-.4.8-1 .6-1.5.4-1-.6-2.1-1-3.2-1-1.7 0-2.8.8-2.8 2.1 0 3.5 8.6 2.6 8.6 8.5 0 3-2.2 5.5-6.1 5.5-2 0-4-.7-5.7-1.9-.5-.3-.6-.9-.3-1.4-.1-.1 0-.2 0-.2zm-44.2-.4v-5.2c.1-.5-.4-1-.9-1.1h-3.9c-.5-.1-1 .3-1.1.9v.9c0 .6.5 1.1 1.1 1.1h1.8v2.3c-4.5 3.8-10.7 1.3-10.9-4.6-.1-3.6 2.1-6.6 6.3-6.6 1.5 0 2.9.4 4.1 1.1.6.4 1.1.3 1.5-.3l.5-.7c.4-.4.3-1-.1-1.4l-.1-.1c-1.8-1.1-3.9-1.7-6-1.7-5.2-.1-9.5 4.1-9.6 9.3v.4c0 9.6 11.1 12.3 16.9 6.5.5-.5.4-.4.4-.8z" fill="#fff"/></svg>