<svg xmlns="http://www.w3.org/2000/svg" style="display:none"><symbol id="access" viewBox="0 0 20 20"><title>svg</title><path d="M10 20a.36.36 0 0 0 .25-.11c.3-.32 7.42-8.09 7.42-12.22a7.67 7.67 0 0 0-15.34 0c0 4.13 7.12 11.9 7.42 12.22A.36.36 0 0 0 10 20zM10 .67a7 7 0 0 1 7 7c0 3.46-5.73 10.08-7 11.5-1.27-1.42-7-8-7-11.5a7 7 0 0 1 7-7z" id="access-01"/><path d="M13 7.67a3 3 0 1 0-3 3 3 3 0 0 0 3-3zm-5.33 0A2.33 2.33 0 1 1 10 10a2.33 2.33 0 0 1-2.33-2.33z" id="access-02"/></symbol><symbol id="answer" viewBox="0 0 57 57"><path d="M7.13 49.71L27.18 6.32a1.16 1.16 0 0 1 1.09-.71h.65a1.12 1.12 0 0 1 1.1.71l19.85 43.39a1.14 1.14 0 0 1-1.1 1.68h-5.6a1.85 1.85 0 0 1-1.87-1.29l-3.16-7H18.86l-3.16 7a1.93 1.93 0 0 1-1.87 1.29h-5.6a1.14 1.14 0 0 1-1.1-1.68zM35 36l-6.47-14.2h-.19L22 36z" id="answer-01"/></symbol><symbol id="arrow_right" viewBox="0 0 36 22"><title>svg</title><path class="cls-1" d="M35.7 9.75L24 0v2.5l9 7.5H0v2h33l-9 7.5V22l11.7-9.75.3-.25v-2l-.3-.25z" id="arrow_right-01"/></symbol><symbol id="bars" viewBox="0 0 30 20"><path fill-rule="evenodd" d="M0 20v-2h30v2H0zM0 9h30v2H0V9zm0-9h30v2H0V0z" id="bars-01"/></symbol><symbol id="bars_close" viewBox="0 0 25 22"><path class="st0" d="M10.944 11l1.485-1.485L13.914 11l-1.485 1.485z" id="bars_close-01"/><path class="st0" d="M0 22h3l9.5-9.5L11 11zM3 0H0l11 11 1.5-1.5zM12.5 12.5L22 22h3L14 11zM25 0h-3l-9.5 9.5L14 11z" id="bars_close-02"/></symbol><symbol id="chevron_down" viewBox="0 0 11 6"><title>svg</title><path class="cls-1" d="M10 0L5.5 5.4 1 0H0l5 6h1l5-6h-1z" id="chevron_down-01"/></symbol><symbol id="download" viewBox="0 0 30 30"><title>svg</title><g id="download"><path class="cls-1" d="M30 30H0V4.5h8.24v1.47H1.47v22.56h27.06V5.97h-6.77V4.5H30V30z" id="download-01"/><path class="cls-2" d="M21.75 15.47l-6 7.2V0h-1.5v22.67l-6-7.2h-1.5l7.5 9h1.5l7.5-9h-1.5z" id="download-02"/></g></symbol><symbol id="external_link" viewBox="0 0 24 24"><title>svg</title><g id="link"><path class="cls-1" transform="rotate(-45 16.616 7.377)" d="M6.96 6.61h19.33v1.54H6.96z" id="external_link-01"/><path class="cls-1" d="M18.49 10.65V22H2.05V5.51h11.3V3.45H0V24h20.55V10.65zM13.67 0h9.25v1.2h-9.25z" id="external_link-02"/><path class="cls-1" transform="rotate(-90 23.4 5.71)" d="M18.78 5.11h9.25v1.2h-9.25z" id="external_link-03"/></g></symbol><symbol id="facebook" viewBox="0 0 38 38"><title>svg</title><path class="cls-1" d="M21.54 36.5v-16h5l.75-6.22h-5.75v-4c0-1.8.46-3 2.88-3h3.08V1.74A40.36 40.36 0 0 0 23 1.5c-4.44 0-7.49 2.9-7.49 8.22v4.59h-5v6.22h5v16z" id="facebook-01"/></symbol><symbol id="global" viewBox="0 0 20 20"><title>svg</title><path d="M10 20a10 10 0 1 1 10-10 10 10 0 0 1-10 10zM10 .58A9.42 9.42 0 1 0 19.42 10 9.44 9.44 0 0 0 10 .58z" id="global-01"/><path d="M10 20c-2.13 0-3.81-4.39-3.81-10S7.87 0 10 0s3.81 4.39 3.81 10S12.13 20 10 20zM10 .58C8.44.58 6.78 4.37 6.78 10s1.66 9.42 3.22 9.42 3.22-3.79 3.22-9.42S11.56.58 10 .58z" id="global-02"/><path d="M19.05 7.18H.91a.29.29 0 0 1 0-.58h18.14a.29.29 0 1 1 0 .58zM19.05 13.4H.91a.29.29 0 1 1 0-.58h18.14a.29.29 0 0 1 0 .58z" id="global-03"/></symbol><symbol id="hatebu" viewBox="0 0 14 12"><title>&#x30A2;&#x30BB;&#x30C3;&#x30C8; 1</title><g id="&#x30EC;&#x30A4;&#x30E4;&#x30FC;_2" data-name="&#x30EC;&#x30A4;&#x30E4;&#x30FC; 2"><path class="cls-1" d="M6.51 5.53a2.73 2.73 0 0 1 1.94.89 3.19 3.19 0 0 1 .7 2.14 3.56 3.56 0 0 1-.4 1.7 2.83 2.83 0 0 1-1.12 1.13 5 5 0 0 1-1.47.47 21.5 21.5 0 0 1-2.87.14H0V0h3.2A19 19 0 0 1 6 .13a4.2 4.2 0 0 1 1.3.45 2.56 2.56 0 0 1 1 1A3 3 0 0 1 8.62 3a2.42 2.42 0 0 1-.5 1.62 3.12 3.12 0 0 1-1.61.92zm-1.28-2.6a3.14 3.14 0 0 0-1.59-.28H3v2.41h.63A3.37 3.37 0 0 0 5.2 4.8a1 1 0 0 0 .44-.92 1.06 1.06 0 0 0-.41-.95zm.47 4.58a2.92 2.92 0 0 0-1.58-.3H3v2.61h1.07a3.17 3.17 0 0 0 1.6-.29 1 1 0 0 0 .47-1 1.22 1.22 0 0 0-.44-1.02zM12.52 12A1.52 1.52 0 1 1 14 10.48 1.5 1.5 0 0 1 12.52 12zm-1.28-4V0h2.56v8z" id="hatebu-01" data-name="&#x30EC;&#x30A4;&#x30E4;&#x30FC; 1"/></g></symbol><symbol id="instagram" viewBox="0 0 38 38"><title>svg</title><path class="cls-1" d="M33.41 13.23a9.94 9.94 0 0 0-.67-3.4 6.93 6.93 0 0 0-1.67-2.48 7.06 7.06 0 0 0-2.57-1.61 10.9 10.9 0 0 0-3.5-.66C23.43 5 22.94 5 19 5s-4.43 0-6 .08a11 11 0 0 0-3.52.66 7.06 7.06 0 0 0-2.55 1.61 6.93 6.93 0 0 0-1.67 2.48 9.94 9.94 0 0 0-.67 3.4c-.07 1.49-.09 2-.09 5.77s0 4.28.09 5.77a9.94 9.94 0 0 0 .67 3.4 6.93 6.93 0 0 0 1.67 2.48 7.23 7.23 0 0 0 2.57 1.62 11.27 11.27 0 0 0 3.52.65c1.55.06 2 .08 6 .08s4.43 0 6-.08a11.21 11.21 0 0 0 3.52-.65 7.23 7.23 0 0 0 2.57-1.62 6.93 6.93 0 0 0 1.67-2.48 9.94 9.94 0 0 0 .67-3.4c.07-1.49.09-2 .09-5.77s-.06-4.28-.13-5.77zM30.8 24.66a7.44 7.44 0 0 1-.5 2.6 4.28 4.28 0 0 1-1.08 1.61 4.6 4.6 0 0 1-1.67 1.05 8.56 8.56 0 0 1-2.69.48c-1.53.06-2 .08-5.86.08s-4.33 0-5.86-.08a8.56 8.56 0 0 1-2.69-.48 4.6 4.6 0 0 1-1.67-1.05 4.28 4.28 0 0 1-1.08-1.61 7.44 7.44 0 0 1-.5-2.6c-.07-1.48-.09-1.92-.09-5.66s0-4.18.09-5.66a7.44 7.44 0 0 1 .5-2.6 4.28 4.28 0 0 1 1.08-1.61 4.45 4.45 0 0 1 1.67-1 8 8 0 0 1 2.69-.48c1.53-.07 2-.09 5.86-.09s4.33 0 5.86.09a8 8 0 0 1 2.69.48 4.45 4.45 0 0 1 1.67 1 4.28 4.28 0 0 1 1.08 1.61 7.44 7.44 0 0 1 .5 2.6c.07 1.48.09 1.92.09 5.66s-.02 4.18-.09 5.66zM19 11.81A7.33 7.33 0 0 0 11.55 19 7.33 7.33 0 0 0 19 26.19 7.33 7.33 0 0 0 26.45 19 7.33 7.33 0 0 0 19 11.81zm0 11.86A4.67 4.67 0 1 1 23.83 19 4.75 4.75 0 0 1 19 23.67zm7.74-13.82a1.68 1.68 0 1 0 1.74 1.68 1.71 1.71 0 0 0-1.74-1.68z" id="instagram-01"/></symbol><symbol id="invision" viewBox="0 0 38 38"><title>svg</title><path class="cls-1" d="M8.5 9.52a3.41 3.41 0 1 0-3.42-3.4 3.39 3.39 0 0 0 3.42 3.4M1.41 27.74a11.93 11.93 0 0 0-.3 2.56c0 3 1.6 5 5 5 2.84 0 5.14-1.7 6.79-4.45l-1 4.1h5.63l3.22-13c.8-3.3 2.36-5 4.72-5a2.83 2.83 0 0 1 3 3.1 6.18 6.18 0 0 1-.25 1.83l-1.66 6a9.19 9.19 0 0 0-.35 2.54c0 2.85 1.66 4.93 5.12 4.93 3 0 5.33-1.93 6.64-6.55l-2.21-.87C34.68 31 33.73 31.51 33 31.51S31.82 31 31.82 30a6.82 6.82 0 0 1 .25-1.58l1.61-5.84a13 13 0 0 0 .55-3.7c0-4.37-2.61-6.65-5.78-6.65-3 0-6 2.71-7.49 5.55l1.1-5.1h-8.59l-1.21 4.49h4l-2.47 10c-2 4.37-5.52 4.44-6 4.34-.73-.17-1.21-.45-1.21-1.42A9.74 9.74 0 0 1 7 27.78l3.77-15.11H1.21L0 17.16h4L1.41 27.74" id="invision-01"/></symbol><symbol id="line" viewBox="0 0 38 38"><title>svg</title><path class="cls-1" d="M38 16.33C38 7.88 29.48 1 19 1S0 7.88 0 16.33c0 7.58 6.76 13.93 15.89 15.13.62.13 1.46.4 1.67.93a3.8 3.8 0 0 1 .07 1.71l-.28 1.61c-.08.48-.38 1.87 1.65 1s10.94-6.41 14.93-11c2.75-2.95 4.07-6 4.07-9.38zm-25.7 4.51a.37.37 0 0 1-.37.37H6.6a.36.36 0 0 1-.25-.1.36.36 0 0 1-.11-.25v-8.25a.38.38 0 0 1 .37-.37h1.33a.37.37 0 0 1 .36.37v6.54h3.63a.38.38 0 0 1 .37.37zm3.21 0a.37.37 0 0 1-.37.36h-1.33a.36.36 0 0 1-.37-.36v-8.23a.36.36 0 0 1 .37-.36h1.33a.37.37 0 0 1 .37.36zm9.17 0a.36.36 0 0 1-.37.36h-1.54a.76.76 0 0 1-.09-.09L18.88 16v4.89a.37.37 0 0 1-.37.36h-1.33a.36.36 0 0 1-.37-.36v-8.28a.36.36 0 0 1 .37-.36h1.53l3.79 5.09v-4.73a.37.37 0 0 1 .37-.36h1.33a.36.36 0 0 1 .37.36zm7.32-6.9a.37.37 0 0 1-.37.37h-3.58v1.39h3.62a.36.36 0 0 1 .37.37v1.32a.36.36 0 0 1-.37.37h-3.62v1.39h3.62a.37.37 0 0 1 .37.37v1.32a.36.36 0 0 1-.37.37h-5.32a.4.4 0 0 1-.26-.1.39.39 0 0 1-.1-.25v-8.25a.39.39 0 0 1 .1-.25.4.4 0 0 1 .26-.1h5.32a.36.36 0 0 1 .37.36z" id="line-01"/></symbol><symbol id="mail" viewBox="0 0 22 17"><title>svg</title><path id="mail-01" class="st0" d="M1 .8v15.3h20V.8H1zm19.3 14.7H1.7V5.8l9 4.7h.7l9-4.7-.1 9.7zm0-10.3L11 10 1.7 5.2V1.6h18.6v3.6z"/></symbol><symbol id="pocket" viewBox="0 0 14 12"><title>&#x30A2;&#x30BB;&#x30C3;&#x30C8; 1</title><g id="&#x30EC;&#x30A4;&#x30E4;&#x30FC;_2" data-name="&#x30EC;&#x30A4;&#x30E4;&#x30FC; 2"><g id="&#x30EC;&#x30A4;&#x30E4;&#x30FC;_1-2" data-name="&#x30EC;&#x30A4;&#x30E4;&#x30FC; 1"><g id="&#x30EC;&#x30A4;&#x30E4;&#x30FC;_1-2-2" data-name="&#x30EC;&#x30A4;&#x30E4;&#x30FC; 1-2"><path id="pocket-01" data-name="&#x30B7;&#x30A7;&#x30A4;&#x30D7; 740" class="cls-1" d="M1.23 0A1.17 1.17 0 0 0 0 1.07v4.55C0 9.2 3.75 12 7 12c3.64 0 7-2.95 7-6.38V1.2A1.16 1.16 0 0 0 12.88 0H1.23zm2.95 3.6L7 6.14 9.8 3.6c1.26-.5 1.81.86 1.29 1.26L7.43 8.19a1.21 1.21 0 0 1-.88 0L2.89 4.86A.93.93 0 0 1 4.18 3.6z"/></g></g></g></symbol><symbol id="question" viewBox="0 0 57 57"><path d="M54 25.5A25.5 25.5 0 1 0 35.47 50l3.92 7h8.53l-5.65-10A25.49 25.49 0 0 0 54 25.5zM28.5 41a15.53 15.53 0 1 1 8.85-2.79l-4.78-8.48h-8.52l6.28 11.15a15.77 15.77 0 0 1-1.83.12z" id="question-01"/></symbol><symbol id="th" viewBox="0 0 22 22"><title>svg</title><path class="cls-1" d="M0 4.4h4.4V0H0zm8.8 0h4.4V0H8.8zM17.6 0v4.4H22V0zM0 13.2h4.4V8.8H0zm8.8 0h4.4V8.8H8.8zm8.8 0H22V8.8h-4.4zM0 22h4.4v-4.4H0zm8.8 0h4.4v-4.4H8.8zm8.8 0H22v-4.4h-4.4z" id="th-01"/></symbol><symbol id="twitter" viewBox="0 0 38 38"><title>svg</title><path class="cls-1" d="M26.310000000000002 4a7.69 7.69 0 0 0-7.8 7.57 7.52 7.52 0 0 0 .2 1.73A22.32 22.32 0 0 1 2.65 5.38 7.34 7.34 0 0 0 1.59 9.2a7.53 7.53 0 0 0 3.47 6.3 7.9 7.9 0 0 1-3.53-.95v.09a7.62 7.62 0 0 0 6.25 7.43 7.68 7.68 0 0 1-2 .27 7.88 7.88 0 0 1-1.47-.14 7.77 7.77 0 0 0 7.28 5.26 16 16 0 0 1-9.68 3.25A16.3 16.3 0 0 1 0 30.6 22.53 22.53 0 0 0 12 34a21.7 21.7 0 0 0 22.13-21.55v-1A15.75 15.75 0 0 0 38 7.55a15.92 15.92 0 0 1-4.48 1.19A7.6 7.6 0 0 0 37 4.55a15.84 15.84 0 0 1-5 1.84A7.9 7.9 0 0 0 26.31 4" id="twitter-01"/></symbol><symbol id="wantedly" viewBox="0 0 38 38"><title>svg</title><path class="cls-1" d="M1 7h5.14l7.72 18 2.57-6-5.14-12h5.14L19 13l2.57-6h5.14l-5.14 12 2.57 6 7.72-18H37L26.71 31h-5.14L19 25l-2.57 6h-5.14z" id="wantedly-01"/></symbol><symbol id="youtube" viewBox="0 0 38 38"><title>svg</title><path class="cls-1" d="M37.21 10.4a4.64 4.64 0 0 0-3.36-3.15C30.88 6.5 19 6.5 19 6.5s-11.88 0-14.85.75A4.64 4.64 0 0 0 .79 10.4C0 13.19 0 19 0 19s0 5.81.79 8.6a4.64 4.64 0 0 0 3.36 3.15c3 .75 14.85.75 14.85.75s11.88 0 14.85-.75a4.64 4.64 0 0 0 3.36-3.15C38 24.81 38 19 38 19s0-5.81-.79-8.6zm-22 14V13.64L25.07 19z" id="youtube-01"/></symbol></svg>